<svg width="38" height="36" viewBox="0 0 38 36" fill="none" xmlns="http://www.w3.org/2000/svg">
<path d="M9.92472 30V12.5455H13.0866V27.3494H20.7741V30H9.92472Z" fill="white"/>
<path d="M21.9411 24H16.0263V6.54545H22.0604C23.7933 6.54545 25.282 6.89489 26.5263 7.59375C27.7763 8.28693 28.7365 9.28409 29.407 10.5852C30.0774 11.8864 30.4126 13.4432 30.4126 15.2557C30.4126 17.0739 30.0746 18.6364 29.3984 19.9432C28.728 21.25 27.7592 22.2528 26.4922 22.9517C25.2308 23.6506 23.7138 24 21.9411 24ZM19.1882 21.2642H21.7876C23.0036 21.2642 24.0178 21.0426 24.8303 20.5994C25.6428 20.1506 26.2536 19.483 26.6626 18.5966C27.0717 17.7045 27.2763 16.5909 27.2763 15.2557C27.2763 13.9205 27.0717 12.8125 26.6626 11.9318C26.2536 11.0455 25.6484 10.3835 24.8473 9.94602C24.0518 9.50284 23.0632 9.28125 21.8814 9.28125H19.1882V21.2642Z" fill="white"/>
</svg>
